<?xml version="1.0" encoding="utf-8"?>
<!-- Generator: Adobe Illustrator 15.1.0, SVG Export Plug-In . SVG Version: 6.00 Build 0)  -->
<!DOCTYPE svg PUBLIC "-//W3C//DTD SVG 1.1//EN" "http://www.w3.org/Graphics/SVG/1.1/DTD/svg11.dtd">
<svg version="1.1" id="Livello_1" xmlns="http://www.w3.org/2000/svg" xmlns:xlink="http://www.w3.org/1999/xlink" x="0px" y="0px"
	 width="28.35px" height="28.35px" viewBox="0 0 28.35 28.35" enable-background="new 0 0 28.35 28.35" xml:space="preserve">
<g>
	<path fill="#FFFFFF" d="M23.178,9.998v-4.83c0-0.618-0.488-1.119-1.088-1.119H6.262c-0.601,0-1.087,0.501-1.087,1.119v4.83
		c-0.777,0.161-1.364,0.851-1.364,1.676v0.135v0.326v10.457c0,0.94,0.767,1.709,1.711,1.709h17.306c0.943,0,1.711-0.769,1.711-1.709
		V11.674C24.539,10.849,23.953,10.16,23.178,9.998z M9.078,6.819h10.193c0.262,0,0.475,0.212,0.475,0.475
		c0,0.262-0.213,0.474-0.475,0.474H9.078c-0.262,0-0.475-0.212-0.475-0.474C8.604,7.031,8.816,6.819,9.078,6.819z M9.078,8.764
		h10.193c0.262,0,0.475,0.212,0.475,0.474s-0.213,0.474-0.475,0.474H9.078c-0.262,0-0.475-0.212-0.475-0.474
		S8.816,8.764,9.078,8.764z M9.078,10.752h10.193c0.262,0,0.475,0.212,0.475,0.475c0,0.262-0.213,0.474-0.475,0.474H9.078
		c-0.262,0-0.475-0.212-0.475-0.474C8.604,10.964,8.816,10.752,9.078,10.752z M18.672,12.987c0,0.263-0.172,0.475-0.383,0.475
		h-8.229c-0.211,0-0.382-0.212-0.382-0.475c0-0.262,0.171-0.475,0.382-0.475h8.229C18.5,12.513,18.672,12.726,18.672,12.987z
		 M5.175,11.497v0.058l-0.028-0.02C5.155,11.521,5.166,11.511,5.175,11.497z M23.355,22.592c0,0.288-0.238,0.525-0.527,0.525H5.522
		c-0.291,0-0.527-0.237-0.527-0.525v-9.589l9.258,6.786l9.103-6.813V22.592z"/>
</g>
</svg>
